# xmcd
#
# Track frame offsets:
#	150
#	15396
#	25052
#	38445
#	47649
#	58659
#	69322
#	81459
#	95831
#	104582
#	114308
#	123968
#	132437
#	143919
#	154889
#
# Disc length: 2235 seconds
#
# Revision: 0
# Processed by: cddbd v1.5.1PL2 Copyright (c) Steve Scherf et al.
# Submitted via: dBpowerAMP V4.0
#
DISCID=c708b90f
DTITLE=Hee Haw Gospel Quartet - Time Life [CD2]
DYEAR=2006
DGENRE=Gospel
TTITLE0=Gone Home
TTITLE1=The Glory Land Way
TTITLE2=When They Ring Those Golden Bells
TTITLE3=Will You Meet Me Over Yonder
TTITLE4=When I Get To The End Of The Way
TTITLE5=No Tears In Heaven
TTITLE6=His Boundless Love
TTITLE7=There's A Hand That's A-Waiting
TTITLE8=The Unclouded Day
TTITLE9=The Old Country Church
TTITLE10=Wait A Little Longer, Please Jesus
TTITLE11=Everybody Will Be Happy Over There
TTITLE12=On The Jericho Road
TTITLE13=We Are Going Down The Valley
TTITLE14=O Come Angel Band
EXTD=
EXTT0=
EXTT1=
EXTT2=
EXTT3=
EXTT4=
EXTT5=
EXTT6=
EXTT7=
EXTT8=
EXTT9=
EXTT10=
EXTT11=
EXTT12=
EXTT13=
EXTT14=
PLAYORDER=
